<svg id="my-svg" width="100%" xmlns="http://www.w3.org/2000/svg" xmlns:xlink="http://www.w3.org/1999/xlink" class="flowchart" style="max-width: 1045.77px; background-color: transparent;" viewBox="0 -0.002391815185546875 1045.765625 200.9904327392578" role="graphics-document document" aria-roledescription="flowchart-v2"><style>#my-svg{font-family:"trebuchet ms",verdana,arial,sans-serif;font-size:16px;fill:#333;}@keyframes edge-animation-frame{from{stroke-dashoffset:0;}}@keyframes dash{to{stroke-dashoffset:0;}}#my-svg .edge-animation-slow{stroke-dasharray:9,5!important;stroke-dashoffset:900;animation:dash 50s linear infinite;stroke-linecap:round;}#my-svg .edge-animation-fast{stroke-dasharray:9,5!important;stroke-dashoffset:900;animation:dash 20s linear infinite;stroke-linecap:round;}#my-svg .error-icon{fill:hsl(220.5882352941, 100%, 98.3333333333%);}#my-svg .error-text{fill:rgb(8.5000000002, 5.7500000001, 0);stroke:rgb(8.5000000002, 5.7500000001, 0);}#my-svg .edge-thickness-normal{stroke-width:1px;}#my-svg .edge-thickness-thick{stroke-width:3.5px;}#my-svg .edge-pattern-solid{stroke-dasharray:0;}#my-svg .edge-thickness-invisible{stroke-width:0;fill:none;}#my-svg .edge-pattern-dashed{stroke-dasharray:3;}#my-svg .edge-pattern-dotted{stroke-dasharray:2;}#my-svg .marker{fill:#0b0b0b;stroke:#0b0b0b;}#my-svg .marker.cross{stroke:#0b0b0b;}#my-svg svg{font-family:"trebuchet ms",verdana,arial,sans-serif;font-size:16px;}#my-svg p{margin:0;}#my-svg .label{font-family:"trebuchet ms",verdana,arial,sans-serif;color:#333;}#my-svg .cluster-label text{fill:rgb(8.5000000002, 5.7500000001, 0);}#my-svg .cluster-label span{color:rgb(8.5000000002, 5.7500000001, 0);}#my-svg .cluster-label span p{background-color:transparent;}#my-svg .label text,#my-svg span{fill:#333;color:#333;}#my-svg .node rect,#my-svg .node circle,#my-svg .node ellipse,#my-svg .node polygon,#my-svg .node path{fill:#fff4dd;stroke:hsl(40.5882352941, 60%, 83.3333333333%);stroke-width:1px;}#my-svg .rough-node .label text,#my-svg .node .label text,#my-svg .image-shape .label,#my-svg .icon-shape .label{text-anchor:middle;}#my-svg .node .katex path{fill:#000;stroke:#000;stroke-width:1px;}#my-svg .rough-node .label,#my-svg .node .label,#my-svg .image-shape .label,#my-svg .icon-shape .label{text-align:center;}#my-svg .node.clickable{cursor:pointer;}#my-svg .root .anchor path{fill:#0b0b0b!important;stroke-width:0;stroke:#0b0b0b;}#my-svg .arrowheadPath{fill:#0b0b0b;}#my-svg .edgePath .path{stroke:#0b0b0b;stroke-width:2.0px;}#my-svg .flowchart-link{stroke:#0b0b0b;fill:none;}#my-svg .edgeLabel{background-color:hsl(-79.4117647059, 100%, 93.3333333333%);text-align:center;}#my-svg .edgeLabel p{background-color:hsl(-79.4117647059, 100%, 93.3333333333%);}#my-svg .edgeLabel rect{opacity:0.5;background-color:hsl(-79.4117647059, 100%, 93.3333333333%);fill:hsl(-79.4117647059, 100%, 93.3333333333%);}#my-svg .labelBkg{background-color:rgba(243.9999999999, 220.9999999998, 255, 0.5);}#my-svg .cluster rect{fill:hsl(220.5882352941, 100%, 98.3333333333%);stroke:hsl(220.5882352941, 60%, 88.3333333333%);stroke-width:1px;}#my-svg .cluster text{fill:rgb(8.5000000002, 5.7500000001, 0);}#my-svg .cluster span{color:rgb(8.5000000002, 5.7500000001, 0);}#my-svg div.mermaidTooltip{position:absolute;text-align:center;max-width:200px;padding:2px;font-family:"trebuchet ms",verdana,arial,sans-serif;font-size:12px;background:hsl(220.5882352941, 100%, 98.3333333333%);border:1px solid hsl(220.5882352941, 60%, 88.3333333333%);border-radius:2px;pointer-events:none;z-index:100;}#my-svg .flowchartTitleText{text-anchor:middle;font-size:18px;fill:#333;}#my-svg rect.text{fill:none;stroke-width:0;}#my-svg .icon-shape,#my-svg .image-shape{background-color:hsl(-79.4117647059, 100%, 93.3333333333%);text-align:center;}#my-svg .icon-shape p,#my-svg .image-shape p{background-color:hsl(-79.4117647059, 100%, 93.3333333333%);padding:2px;}#my-svg .icon-shape .label rect,#my-svg .image-shape .label rect{opacity:0.5;background-color:hsl(-79.4117647059, 100%, 93.3333333333%);fill:hsl(-79.4117647059, 100%, 93.3333333333%);}#my-svg .label-icon{display:inline-block;height:1em;overflow:visible;vertical-align:-0.125em;}#my-svg .node .label-icon path{fill:currentColor;stroke:revert;stroke-width:revert;}#my-svg :root{--mermaid-font-family:"trebuchet ms",verdana,arial,sans-serif;}</style><g><marker id="my-svg_flowchart-v2-pointEnd" class="marker flowchart-v2" viewBox="0 0 10 10" refX="5" refY="5" markerUnits="userSpaceOnUse" markerWidth="8" markerHeight="8" orient="auto"><path d="M 0 0 L 10 5 L 0 10 z" class="arrowMarkerPath" style="stroke-width: 1; stroke-dasharray: 1, 0;"/></marker><marker id="my-svg_flowchart-v2-pointStart" class="marker flowchart-v2" viewBox="0 0 10 10" refX="4.5" refY="5" markerUnits="userSpaceOnUse" markerWidth="8" markerHeight="8" orient="auto"><path d="M 0 5 L 10 10 L 10 0 z" class="arrowMarkerPath" style="stroke-width: 1; stroke-dasharray: 1, 0;"/></marker><marker id="my-svg_flowchart-v2-circleEnd" class="marker flowchart-v2" viewBox="0 0 10 10" refX="11" refY="5" markerUnits="userSpaceOnUse" markerWidth="11" markerHeight="11" orient="auto"><circle cx="5" cy="5" r="5" class="arrowMarkerPath" style="stroke-width: 1; stroke-dasharray: 1, 0;"/></marker><marker id="my-svg_flowchart-v2-circleStart" class="marker flowchart-v2" viewBox="0 0 10 10" refX="-1" refY="5" markerUnits="userSpaceOnUse" markerWidth="11" markerHeight="11" orient="auto"><circle cx="5" cy="5" r="5" class="arrowMarkerPath" style="stroke-width: 1; stroke-dasharray: 1, 0;"/></marker><marker id="my-svg_flowchart-v2-crossEnd" class="marker cross flowchart-v2" viewBox="0 0 11 11" refX="12" refY="5.2" markerUnits="userSpaceOnUse" markerWidth="11" markerHeight="11" orient="auto"><path d="M 1,1 l 9,9 M 10,1 l -9,9" class="arrowMarkerPath" style="stroke-width: 2; stroke-dasharray: 1, 0;"/></marker><marker id="my-svg_flowchart-v2-crossStart" class="marker cross flowchart-v2" viewBox="0 0 11 11" refX="-1" refY="5.2" markerUnits="userSpaceOnUse" markerWidth="11" markerHeight="11" orient="auto"><path d="M 1,1 l 9,9 M 10,1 l -9,9" class="arrowMarkerPath" style="stroke-width: 2; stroke-dasharray: 1, 0;"/></marker><g class="root"><g class="clusters"/><g class="edgePaths"><path d="M99.063,100.495L109.188,100.495C119.313,100.495,139.563,100.495,159.146,100.495C178.729,100.495,197.646,100.495,207.104,100.495L216.563,100.495" id="L_A_B_0" class="edge-thickness-normal edge-pattern-solid edge-thickness-normal edge-pattern-solid flowchart-link" style="stroke:#757575;fill:none;;;stroke:#757575;fill:none" data-edge="true" data-et="edge" data-id="L_A_B_0" data-points="W3sieCI6OTkuMDYyNSwieSI6MTAwLjQ5NTIxNjM2OTYyODl9LHsieCI6MTU5LjgxMjUsInkiOjEwMC40OTUyMTYzNjk2Mjg5fSx7IngiOjIyMC41NjI1LCJ5IjoxMDAuNDk1MjE2MzY5NjI4OX1d" marker-end="url(#my-svg_flowchart-v2-pointEnd__757575)"/><path d="M378.141,100.495L392.228,100.495C406.315,100.495,434.49,100.495,461.997,100.495C489.505,100.495,516.346,100.495,529.767,100.495L543.188,100.495" id="L_B_C_0" class="edge-thickness-normal edge-pattern-solid edge-thickness-normal edge-pattern-solid flowchart-link" style="stroke:#757575;fill:none;;;stroke:#757575;fill:none" data-edge="true" data-et="edge" data-id="L_B_C_0" data-points="W3sieCI6Mzc4LjE0MDYyNSwieSI6MTAwLjQ5NTIxNjM2OTYyODl9LHsieCI6NDYyLjY2NDA2MjUsInkiOjEwMC40OTUyMTYzNjk2Mjg5fSx7IngiOjU0Ny4xODc1LCJ5IjoxMDAuNDk1MjE2MzY5NjI4OX1d" marker-end="url(#my-svg_flowchart-v2-pointEnd__757575)"/><path d="M608.683,81.413L616.031,74.802C623.378,68.191,638.072,54.969,651.114,48.433C664.156,41.897,675.547,42.046,681.242,42.121L686.938,42.195" id="L_C_D_0" class="edge-thickness-normal edge-pattern-solid edge-thickness-normal edge-pattern-solid flowchart-link" style="stroke:#757575;fill:none;;;stroke:#757575;fill:none" data-edge="true" data-et="edge" data-id="L_C_D_0" data-points="W3sieCI6NjA4LjY4MzQ3NzM5OTQ4OTgsInkiOjgxLjQxMzA2ODc2OTExODc1fSx7IngiOjY1Mi43NjU2MjUsInkiOjQxLjc0NzYwODE4NDgxNDQ1fSx7IngiOjY5MC45Mzc1LCJ5Ijo0Mi4yNDc2MDgxODQ4MTQ0NX1d" marker-end="url(#my-svg_flowchart-v2-pointEnd__757575)"/><path d="M608.683,119.577L616.031,126.188C623.378,132.799,638.072,146.021,649.002,152.702C659.933,159.383,667.099,159.524,670.683,159.594L674.266,159.664" id="L_C_E_0" class="edge-thickness-normal edge-pattern-solid edge-thickness-normal edge-pattern-solid flowchart-link" style="stroke:#757575;fill:none;;;stroke:#757575;fill:none" data-edge="true" data-et="edge" data-id="L_C_E_0" data-points="W3sieCI6NjA4LjY4MzQ3NzM5OTQ4OTgsInkiOjExOS41NzczNjM5NzAxMzkwN30seyJ4Ijo2NTIuNzY1NjI1LCJ5IjoxNTkuMjQyODI0NTU0NDQzMzZ9LHsieCI6Njc4LjI2NTYyNSwieSI6MTU5Ljc0MjgyNDU1NDQ0MzM2fV0=" marker-end="url(#my-svg_flowchart-v2-pointEnd__757575)"/><path d="M813.422,42.248L819.617,42.164C825.813,42.081,838.203,41.914,849.394,44.63C860.584,47.347,870.574,52.945,875.569,55.745L880.564,58.544" id="L_D_F_0" class="edge-thickness-normal edge-pattern-solid edge-thickness-normal edge-pattern-solid flowchart-link" style="stroke:#757575;fill:none;;;stroke:#757575;fill:none" data-edge="true" data-et="edge" data-id="L_D_F_0" data-points="W3sieCI6ODEzLjQyMTg3NSwieSI6NDIuMjQ3NjA4MTg0ODE0NDV9LHsieCI6ODUwLjU5Mzc1LCJ5Ijo0MS43NDc2MDgxODQ4MTQ0NX0seyJ4Ijo4ODQuMDUzNzg2NTIyNjI3NCwieSI6NjAuNTAwMDExNDQ0MDkxOH1d" marker-end="url(#my-svg_flowchart-v2-pointEnd__757575)"/><path d="M826.094,159.743L830.177,159.659C834.26,159.576,842.427,159.409,852.354,156.208C862.28,153.006,873.967,146.77,879.81,143.652L885.653,140.534" id="L_E_F_0" class="edge-thickness-normal edge-pattern-solid edge-thickness-normal edge-pattern-solid flowchart-link" style="stroke:#757575;fill:none;;;stroke:#757575;fill:none" data-edge="true" data-et="edge" data-id="L_E_F_0" data-points="W3sieCI6ODI2LjA5Mzc1MDAwMDAwMDIsInkiOjE1OS43NDI4MjQ1NTQ0NDMzNn0seyJ4Ijo4NTAuNTkzNzUsInkiOjE1OS4yNDI4MjQ1NTQ0NDMzNn0seyJ4Ijo4ODkuMTgyMzg0ODg4NzE3MywieSI6MTM4LjY1MDMzODEwOTMyMTR9XQ==" marker-end="url(#my-svg_flowchart-v2-pointEnd__757575)"/></g><g class="edgeLabels"><g class="edgeLabel" transform="translate(159.8125, 100.4952163696289)"><g class="label" data-id="L_A_B_0" transform="translate(-35.75, -12)"><foreignObject width="71.5" height="24"><div xmlns="http://www.w3.org/1999/xhtml" class="labelBkg" style="display: table-cell; white-space: nowrap; line-height: 1.5; max-width: 200px; text-align: center;"><span class="edgeLabel"><p>SMB share</p></span></div></foreignObject></g></g><g class="edgeLabel" transform="translate(462.6640625, 100.4952163696289)"><g class="label" data-id="L_B_C_0" transform="translate(-59.5234375, -12)"><foreignObject width="119.046875" height="24"><div xmlns="http://www.w3.org/1999/xhtml" class="labelBkg" style="display: table-cell; white-space: nowrap; line-height: 1.5; max-width: 200px; text-align: center;"><span class="edgeLabel"><p>R/O Mount point</p></span></div></foreignObject></g></g><g class="edgeLabel"><g class="label" data-id="L_C_D_0" transform="translate(0, 0)"><foreignObject width="0" height="0"><div xmlns="http://www.w3.org/1999/xhtml" class="labelBkg" style="display: table-cell; white-space: nowrap; line-height: 1.5; max-width: 200px; text-align: center;"><span class="edgeLabel"></span></div></foreignObject></g></g><g class="edgeLabel"><g class="label" data-id="L_C_E_0" transform="translate(0, 0)"><foreignObject width="0" height="0"><div xmlns="http://www.w3.org/1999/xhtml" class="labelBkg" style="display: table-cell; white-space: nowrap; line-height: 1.5; max-width: 200px; text-align: center;"><span class="edgeLabel"></span></div></foreignObject></g></g><g class="edgeLabel"><g class="label" data-id="L_D_F_0" transform="translate(0, 0)"><foreignObject width="0" height="0"><div xmlns="http://www.w3.org/1999/xhtml" class="labelBkg" style="display: table-cell; white-space: nowrap; line-height: 1.5; max-width: 200px; text-align: center;"><span class="edgeLabel"></span></div></foreignObject></g></g><g class="edgeLabel"><g class="label" data-id="L_E_F_0" transform="translate(0, 0)"><foreignObject width="0" height="0"><div xmlns="http://www.w3.org/1999/xhtml" class="labelBkg" style="display: table-cell; white-space: nowrap; line-height: 1.5; max-width: 200px; text-align: center;"><span class="edgeLabel"></span></div></foreignObject></g></g></g><g class="nodes"><g class="node default" id="flowchart-A-0" transform="translate(53.53125, 100.4952163696289)"><path d="M0,10.53659242117443 a45.53125,10.53659242117443 0,0,0 91.0625,0 a45.53125,10.53659242117443 0,0,0 -91.0625,0 l0,49.53659242117443 a45.53125,10.53659242117443 0,0,0 91.0625,0 l0,-49.53659242117443" class="basic label-container" style="" transform="translate(-45.53125, -35.30488863176164)"/><g class="label" style="" transform="translate(-38.03125, -2)"><rect/><foreignObject width="76.0625" height="24"><div xmlns="http://www.w3.org/1999/xhtml" style="display: table-cell; white-space: nowrap; line-height: 1.5; max-width: 200px; text-align: center;"><span class="nodeLabel"><p>NAS media</p></span></div></foreignObject></g></g><g class="node default" id="flowchart-B-1" transform="translate(299.3515625, 100.4952163696289)"><rect class="basic label-container" style="" x="-78.7890625" y="-27" width="157.578125" height="54"/><g class="label" style="" transform="translate(-48.7890625, -12)"><rect/><foreignObject width="97.578125" height="24"><div xmlns="http://www.w3.org/1999/xhtml" style="display: table-cell; white-space: nowrap; line-height: 1.5; max-width: 200px; text-align: center;"><span class="nodeLabel"><p>Proxmox Host</p></span></div></foreignObject></g></g><g class="node default" id="flowchart-C-3" transform="translate(587.4765625, 100.4952163696289)"><polygon points="40.2890625,0 80.578125,-40.2890625 40.2890625,-80.578125 0,-40.2890625" class="label-container" transform="translate(-39.7890625, 40.2890625)"/><g class="label" style="" transform="translate(-13.2890625, -12)"><rect/><foreignObject width="26.578125" height="24"><div xmlns="http://www.w3.org/1999/xhtml" style="display: table-cell; white-space: nowrap; line-height: 1.5; max-width: 200px; text-align: center;"><span class="nodeLabel"><p>LXC</p></span></div></foreignObject></g></g><g class="node default" id="flowchart-D-5" transform="translate(751.6796875, 41.74760818481445)"><g class="basic label-container" transform="translate(0,-3.375)"><path d="M-61.2421875 30.375 C-61.2421875 30.375, -61.2421875 30.375, -61.2421875 30.375 C-60.58780231142845 30.55596501409399, -59.933417122856895 30.736930028187977, -58.7925 31.0524415752457 C-57.99432346874409 31.27094202274973, -57.19614693748819 31.489442470253756, -56.3428125 31.723042368472246 C-55.433954525159514 31.966791443548516, -54.525096550319034 32.21054051862478, -53.893125 32.38003067564499 C-53.087602676408956 32.589408220098605, -52.28208035281792 32.79878576455222, -51.4434375 33.01677225115112 C-50.847423151965145 33.16520241722729, -50.251408803930296 33.31363258330346, -48.99375 33.62683730018658 C-48.23615069545283 33.80535297289509, -47.47855139090566 33.98386864560361, -46.5440625 34.20406540660561 C-45.84083209490001 34.35867019121674, -45.137601689800015 34.51327497582787, -44.094375 34.74262774059375 C-43.45831839895783 34.87101284590792, -42.82226179791565 34.99939795122209, -41.6446875 35.23708591799337 C-41.13960088619037 35.32891227497638, -40.634514272380734 35.420738631959395, -39.195 35.682446916922174 C-38.47343170994673 35.79784381607228, -37.75186341989346 35.91324071522239, -36.7453125 36.0742134971386 C-35.78920277848585 36.204657595613156, -34.833093056971705 36.33510169408771, -34.295625 36.40842961302103 C-33.36927887997387 36.51177415168917, -32.44293275994773 36.61511869035731, -31.8459375 36.68172036158213 C-31.209796941670607 36.736151258327986, -30.573656383341213 36.790582155073835, -29.39625 36.8913260621246 C-28.458846694761124 36.946354469768124, -27.521443389522247 37.00138287741165, -26.9465625 37.03513012340311 C-26.066231393010273 37.06263959332792, -25.185900286020548 37.09014906325273, -24.496875000000003 37.111680416890835 C-23.956050292043003 37.11356218020615, -23.415225584086 37.11544394352147, -22.0471875 37.120203940323975 C-21.214818932544567 37.099956347796336, -20.382450365089134 37.079708755268705, -19.597499999999997 37.060614623452395 C-19.023439767248124 37.0308298854839, -18.449379534496252 37.00104514751539, -17.1478125 36.93351419717405 C-16.506754137120645 36.8829222002775, -15.865695774241289 36.83233020338095, -14.698124999999997 36.740186117276835 C-14.203300473691458 36.688151506184376, -13.70847594738292 36.63611689509192, -12.248437499999994 36.482582604145634 C-11.27825244099554 36.35613446339218, -10.308067381991085 36.22968632263873, -9.798750000000005 36.16330492930715 C-9.086230144354433 36.05343844866547, -8.373710288708862 35.94357196802379, -7.349062500000002 35.78557714787842 C-6.369702110680851 35.612722533068855, -5.390341721361701 35.43986791825929, -4.899374999999999 35.35321354216767 C-3.998213644215053 35.1756682012122, -3.097052288430107 34.998122860256714, -2.449687500000003 34.870580105181205 C-1.7979112388608638 34.73008986204363, -1.1461349777217245 34.58959961890605, 0 34.342550452974194 C0.7192572298125418 34.17575138043039, 1.4385144596250836 34.00895230788658, 2.449687500000003 33.77445661104139 C3.279387693804383 33.570418673561775, 4.109087887608763 33.366380736082164, 4.899375000000006 33.17203517170467 C5.863481718057258 32.92382835351364, 6.82758843611451 32.67562153532262, 7.349062500000002 32.541369366198666 C7.937922224255674 32.38451036150127, 8.526781948511346 32.22765135680387, 9.798749999999998 31.888827636408326 C10.572312900406367 31.67794065415427, 11.345875800812737 31.467053671900214, 12.248437499999994 31.22099932655906 C12.981405693813912 31.018623079037557, 13.71437388762783 30.816246831516054, 14.698125000000005 30.544628144242527 C15.50601701391972 30.32100014505682, 16.313909027839436 30.097372145871116, 17.1478125 29.866544062686458 C17.801942290749672 29.68684912058027, 18.456072081499347 29.50715417847408, 19.59750000000001 29.193594351916886 C20.196452671308577 29.031973882011656, 20.795405342617144 28.87035341210642, 22.047187500000007 28.532574435258056 C22.659676992905595 28.371952911416965, 23.27216648581118 28.21133138757587, 24.49687499999999 27.89015926937843 C25.40692757299471 27.66082524879909, 26.316980145989433 27.431491228219752, 26.9465625 27.27283594080496 C27.849377876714776 27.056870513523553, 28.752193253429553 26.840905086242145, 29.396249999999995 26.686838159543687 C29.916872593980198 26.57021341758856, 30.437495187960398 26.45358867563343, 31.845937500000005 26.138083311287772 C32.437053702406445 26.01599123873023, 33.02816990481288 25.89389916617269, 34.295625 25.632112703857768 C34.87994482540687 25.52284834798886, 35.46426465081374 25.413583992119953, 36.74531250000001 25.17403561126342 C37.69789918913628 25.01633015430729, 38.650485878272555 24.858624697351164, 39.19499999999999 24.76847768042827 C39.857233853599126 24.674146394722705, 40.51946770719826 24.57981510901714, 41.64468749999999 24.419534221564067 C42.43460739429349 24.326406789790692, 43.22452728858699 24.23327935801732, 44.094375 24.13072885386741 C44.65395816170153 24.079160472586942, 45.21354132340306 24.02759209130647, 46.544062499999995 23.904977924132716 C47.36286099217196 23.851359212174064, 48.181659484343925 23.79774050021541, 48.993750000000006 23.74456105758135 C49.6288102782664 23.720331604829997, 50.2638705565328 23.696102152078645, 51.4434375 23.651098138283587 C52.07322559705329 23.64452560596793, 52.70301369410657 23.63795307365228, 53.893125 23.62553295162424 C54.833533818318536 23.641883066519746, 55.773942636637074 23.658233181415255, 56.342812499999994 23.668123653989944 C57.17982391235323 23.705816698287233, 58.016835324706456 23.743509742584525, 58.792500000000004 23.778440165914695 C59.60748519903654 23.83730236192981, 60.42247039807307 23.896164557944925, 61.2421875 23.955368515007713 C61.2421875 9.510266923394996, 61.2421875 -4.9348346682177215, 61.2421875 -30.375 C19.19761086027303 -30.375, -22.84696577945394 -30.375, -61.2421875 -30.375 C-61.2421875 -9.08801717204183, -61.2421875 12.19896565591634, -61.2421875 30.375" stroke="none" stroke-width="0" fill="#fff4dd" style=""/><path d="M-61.2421875 30.375 C-61.2421875 30.375, -61.2421875 30.375, -61.2421875 30.375 M-61.2421875 30.375 C-61.2421875 30.375, -61.2421875 30.375, -61.2421875 30.375 M-61.2421875 30.375 C-60.65087770058858 30.53852201738854, -60.059567901177154 30.702044034777085, -58.7925 31.0524415752457 M-61.2421875 30.375 C-60.44332993323002 30.595917700086076, -59.64447236646003 30.81683540017215, -58.7925 31.0524415752457 M-58.7925 31.0524415752457 C-57.87804797176072 31.302772384993833, -56.96359594352145 31.55310319474197, -56.3428125 31.723042368472246 M-58.7925 31.0524415752457 C-58.07968765828405 31.247573616282114, -57.366875316568105 31.442705657318523, -56.3428125 31.723042368472246 M-56.3428125 31.723042368472246 C-55.57608948740817 31.928671884119893, -54.809366474816336 32.13430139976754, -53.893125 32.38003067564499 M-56.3428125 31.723042368472246 C-55.50146589245586 31.94868538760671, -54.660119284911715 32.17432840674117, -53.893125 32.38003067564499 M-53.893125 32.38003067564499 C-53.01235317035261 32.608967649226756, -52.13158134070523 32.83790462280853, -51.4434375 33.01677225115112 M-53.893125 32.38003067564499 C-53.24380913393313 32.54880583882827, -52.59449326786626 32.71758100201155, -51.4434375 33.01677225115112 M-51.4434375 33.01677225115112 C-50.601125401855576 33.22653989353719, -49.75881330371115 33.43630753592327, -48.99375 33.62683730018658 M-51.4434375 33.01677225115112 C-50.86127976879663 33.161751594366514, -50.279122037593254 33.306730937581904, -48.99375 33.62683730018658 M-48.99375 33.62683730018658 C-48.32611949017101 33.78415332313896, -47.65848898034202 33.94146934609134, -46.5440625 34.20406540660561 M-48.99375 33.62683730018658 C-48.25379568434411 33.80119522480457, -47.51384136868822 33.975553149422566, -46.5440625 34.20406540660561 M-46.5440625 34.20406540660561 C-45.741400284263825 34.38053021540713, -44.93873806852765 34.55699502420864, -44.094375 34.74262774059375 M-46.5440625 34.20406540660561 C-46.03360827533191 34.31628846306948, -45.523154050663805 34.428511519533366, -44.094375 34.74262774059375 M-44.094375 34.74262774059375 C-43.282503939796825 34.90650018747179, -42.470632879593644 35.07037263434984, -41.6446875 35.23708591799337 M-44.094375 34.74262774059375 C-43.143237229990056 34.934610533588796, -42.19209945998011 35.126593326583844, -41.6446875 35.23708591799337 M-41.6446875 35.23708591799337 C-40.78944527829042 35.392571681049546, -39.93420305658084 35.548057444105716, -39.195 35.682446916922174 M-41.6446875 35.23708591799337 C-40.95870602207693 35.3617995380998, -40.27272454415385 35.486513158206236, -39.195 35.682446916922174 M-39.195 35.682446916922174 C-38.37012861184793 35.81436457697257, -37.545257223695856 35.94628223702297, -36.7453125 36.0742134971386 M-39.195 35.682446916922174 C-38.594841687066484 35.77842731027701, -37.994683374132975 35.874407703631846, -36.7453125 36.0742134971386 M-36.7453125 36.0742134971386 C-35.834640375106275 36.19845844692276, -34.92396825021255 36.32270339670691, -34.295625 36.40842961302103 M-36.7453125 36.0742134971386 C-36.0316523407798 36.17157968220286, -35.3179921815596 36.26894586726712, -34.295625 36.40842961302103 M-34.295625 36.40842961302103 C-33.5948708796703 36.48660677566001, -32.89411675934061 36.56478393829899, -31.8459375 36.68172036158213 M-34.295625 36.40842961302103 C-33.702447874322544 36.47460532755838, -33.10927074864508 36.54078104209573, -31.8459375 36.68172036158213 M-31.8459375 36.68172036158213 C-31.215231759654287 36.735686232143706, -30.584526019308573 36.78965210270529, -29.39625 36.8913260621246 M-31.8459375 36.68172036158213 C-30.869663563489194 36.765254519462964, -29.893389626978387 36.84878867734379, -29.39625 36.8913260621246 M-29.39625 36.8913260621246 C-28.81438598693911 36.92548323857668, -28.232521973878228 36.959640415028765, -26.9465625 37.03513012340311 M-29.39625 36.8913260621246 C-28.66607702599347 36.934189422899365, -27.93590405198694 36.97705278367414, -26.9465625 37.03513012340311 M-26.9465625 37.03513012340311 C-26.310828045961262 37.054996191641166, -25.675093591922526 37.07486225987923, -24.496875000000003 37.111680416890835 M-26.9465625 37.03513012340311 C-26.411195328586164 37.051859814065864, -25.87582815717233 37.06858950472862, -24.496875000000003 37.111680416890835 M-24.496875000000003 37.111680416890835 C-23.54706565283321 37.11498521484061, -22.59725630566642 37.11829001279039, -22.0471875 37.120203940323975 M-24.496875000000003 37.111680416890835 C-23.94194179473289 37.11361126977673, -23.38700858946578 37.11554212266263, -22.0471875 37.120203940323975 M-22.0471875 37.120203940323975 C-21.091218347120627 37.096949729829625, -20.135249194241254 37.07369551933527, -19.597499999999997 37.060614623452395 M-22.0471875 37.120203940323975 C-21.52954630278637 37.10761217695557, -21.011905105572733 37.09502041358716, -19.597499999999997 37.060614623452395 M-19.597499999999997 37.060614623452395 C-18.778553825899493 37.01812413932852, -17.95960765179899 36.97563365520465, -17.1478125 36.93351419717405 M-19.597499999999997 37.060614623452395 C-18.993042929757955 37.0292527655441, -18.388585859515914 36.99789090763581, -17.1478125 36.93351419717405 M-17.1478125 36.93351419717405 C-16.30279349774799 36.86682573132604, -15.457774495495986 36.800137265478035, -14.698124999999997 36.740186117276835 M-17.1478125 36.93351419717405 C-16.44976546139153 36.87842468324539, -15.75171842278306 36.82333516931673, -14.698124999999997 36.740186117276835 M-14.698124999999997 36.740186117276835 C-14.061431046618326 36.67323284295898, -13.424737093236654 36.606279568641135, -12.248437499999994 36.482582604145634 M-14.698124999999997 36.740186117276835 C-13.847992330517323 36.650788117619186, -12.997859661034648 36.56139011796154, -12.248437499999994 36.482582604145634 M-12.248437499999994 36.482582604145634 C-11.577512209411257 36.39513819877985, -10.906586918822518 36.30769379341405, -9.798750000000005 36.16330492930715 M-12.248437499999994 36.482582604145634 C-11.487662987305464 36.38342778644358, -10.726888474610934 36.28427296874153, -9.798750000000005 36.16330492930715 M-9.798750000000005 36.16330492930715 C-9.144672163781559 36.06244987332287, -8.490594327563114 35.961594817338586, -7.349062500000002 35.78557714787842 M-9.798750000000005 36.16330492930715 C-9.074157027126494 36.0515768431401, -8.349564054252983 35.93984875697304, -7.349062500000002 35.78557714787842 M-7.349062500000002 35.78557714787842 C-6.7997901063182455 35.68863196909557, -6.250517712636489 35.591686790312714, -4.899374999999999 35.35321354216767 M-7.349062500000002 35.78557714787842 C-6.810564101825238 35.69053355186697, -6.272065703650475 35.59548995585552, -4.899374999999999 35.35321354216767 M-4.899374999999999 35.35321354216767 C-4.257117843707891 35.22667708444789, -3.614860687415783 35.10014062672812, -2.449687500000003 34.870580105181205 M-4.899374999999999 35.35321354216767 C-3.9201490488682946 35.16028804192283, -2.94092309773659 34.967362541677986, -2.449687500000003 34.870580105181205 M-2.449687500000003 34.870580105181205 C-1.7733107665160452 34.724787235134535, -1.0969340330320874 34.578994365087866, 0 34.342550452974194 M-2.449687500000003 34.870580105181205 C-1.8716912196558122 34.745993122193745, -1.2936949393116213 34.621406139206286, 0 34.342550452974194 M0 34.342550452974194 C0.9386394778599465 34.12487562417776, 1.877278955719893 33.90720079538133, 2.449687500000003 33.77445661104139 M0 34.342550452974194 C0.6525022161085602 34.1912321763292, 1.3050044322171204 34.03991389968421, 2.449687500000003 33.77445661104139 M2.449687500000003 33.77445661104139 C3.1066670494357775 33.61289373178194, 3.763646598871552 33.45133085252249, 4.899375000000006 33.17203517170467 M2.449687500000003 33.77445661104139 C3.257587943654438 33.5757796172995, 4.065488387308873 33.37710262355762, 4.899375000000006 33.17203517170467 M4.899375000000006 33.17203517170467 C5.659061768914096 32.9764557485948, 6.418748537828186 32.78087632548493, 7.349062500000002 32.541369366198666 M4.899375000000006 33.17203517170467 C5.43257511518098 33.034764160550594, 5.965775230361953 32.89749314939652, 7.349062500000002 32.541369366198666 M7.349062500000002 32.541369366198666 C7.839140986197157 32.41082346468424, 8.329219472394312 32.28027756316981, 9.798749999999998 31.888827636408326 M7.349062500000002 32.541369366198666 C8.318476962255334 32.283139126593056, 9.287891424510663 32.02490888698745, 9.798749999999998 31.888827636408326 M9.798749999999998 31.888827636408326 C10.677281112060296 31.649324455811932, 11.555812224120594 31.409821275215542, 12.248437499999994 31.22099932655906 M9.798749999999998 31.888827636408326 C10.595958806474352 31.67149436029669, 11.393167612948703 31.454161084185056, 12.248437499999994 31.22099932655906 M12.248437499999994 31.22099932655906 C12.98094787477871 31.018749485202477, 13.713458249557428 30.816499643845894, 14.698125000000005 30.544628144242527 M12.248437499999994 31.22099932655906 C12.96213053197135 31.023945049290823, 13.675823563942707 30.826890772022583, 14.698125000000005 30.544628144242527 M14.698125000000005 30.544628144242527 C15.246768304865073 30.392761307561802, 15.79541160973014 30.240894470881074, 17.1478125 29.866544062686458 M14.698125000000005 30.544628144242527 C15.586348636878625 30.298764004825056, 16.474572273757246 30.05289986540759, 17.1478125 29.866544062686458 M17.1478125 29.866544062686458 C17.889435968226998 29.66281387324667, 18.63105943645399 29.45908368380688, 19.59750000000001 29.193594351916886 M17.1478125 29.866544062686458 C17.962880486070755 29.64263804794627, 18.777948472141514 29.418732033206084, 19.59750000000001 29.193594351916886 M19.59750000000001 29.193594351916886 C20.484565829750057 28.954229869364614, 21.3716316595001 28.71486538681234, 22.047187500000007 28.532574435258056 M19.59750000000001 29.193594351916886 C20.25034269185446 29.017432281546295, 20.903185383708905 28.841270211175708, 22.047187500000007 28.532574435258056 M22.047187500000007 28.532574435258056 C22.56699720215344 28.396257604627724, 23.086806904306876 28.259940773997393, 24.49687499999999 27.89015926937843 M22.047187500000007 28.532574435258056 C22.562702454002423 28.397383875364643, 23.07821740800484 28.262193315471233, 24.49687499999999 27.89015926937843 M24.49687499999999 27.89015926937843 C24.990290241065328 27.765818209964387, 25.483705482130667 27.641477150550347, 26.9465625 27.27283594080496 M24.49687499999999 27.89015926937843 C25.001882362732765 27.762896985468213, 25.50688972546554 27.635634701557997, 26.9465625 27.27283594080496 M26.9465625 27.27283594080496 C27.702421117079865 27.092024521978672, 28.458279734159735 26.911213103152388, 29.396249999999995 26.686838159543687 M26.9465625 27.27283594080496 C27.788612232383496 27.07140646260075, 28.630661964766997 26.869976984396537, 29.396249999999995 26.686838159543687 M29.396249999999995 26.686838159543687 C30.094206078417308 26.53048891830325, 30.792162156834618 26.37413967706281, 31.845937500000005 26.138083311287772 M29.396249999999995 26.686838159543687 C30.265747777719497 26.492061837636783, 31.135245555439 26.29728551572988, 31.845937500000005 26.138083311287772 M31.845937500000005 26.138083311287772 C32.357640879340764 26.032393557117484, 32.86934425868153 25.926703802947195, 34.295625 25.632112703857768 M31.845937500000005 26.138083311287772 C32.4119687052874 26.02117241846426, 32.977999910574795 25.904261525640745, 34.295625 25.632112703857768 M34.295625 25.632112703857768 C34.85585603317578 25.527352809847496, 35.416087066351565 25.422592915837225, 36.74531250000001 25.17403561126342 M34.295625 25.632112703857768 C34.91181564071244 25.51688869378244, 35.52800628142488 25.401664683707114, 36.74531250000001 25.17403561126342 M36.74531250000001 25.17403561126342 C37.50995144276613 25.047445837072136, 38.27459038553226 24.920856062880855, 39.19499999999999 24.76847768042827 M36.74531250000001 25.17403561126342 C37.408277159256905 25.064278519624157, 38.0712418185138 24.954521427984893, 39.19499999999999 24.76847768042827 M39.19499999999999 24.76847768042827 C40.16074828413201 24.630912563793107, 41.12649656826403 24.493347447157948, 41.64468749999999 24.419534221564067 M39.19499999999999 24.76847768042827 C39.877846628972804 24.67121022709492, 40.560693257945616 24.573942773761576, 41.64468749999999 24.419534221564067 M41.64468749999999 24.419534221564067 C42.35711837813991 24.335542340265064, 43.06954925627982 24.25155045896606, 44.094375 24.13072885386741 M41.64468749999999 24.419534221564067 C42.162046719480436 24.35854027045263, 42.67940593896088 24.297546319341187, 44.094375 24.13072885386741 M44.094375 24.13072885386741 C44.94520567914315 24.05232056021225, 45.79603635828631 23.973912266557097, 46.544062499999995 23.904977924132716 M44.094375 24.13072885386741 C44.678764643577864 24.076874431470664, 45.26315428715573 24.023020009073917, 46.544062499999995 23.904977924132716 M46.544062499999995 23.904977924132716 C47.52270155791573 23.8408921127157, 48.50134061583147 23.776806301298684, 48.993750000000006 23.74456105758135 M46.544062499999995 23.904977924132716 C47.133582542567986 23.866373425396453, 47.723102585135976 23.827768926660195, 48.993750000000006 23.74456105758135 M48.993750000000006 23.74456105758135 C49.627431637018795 23.72038420412508, 50.26111327403759 23.696207350668807, 51.4434375 23.651098138283587 M48.993750000000006 23.74456105758135 C49.9131368233728 23.709483695070286, 50.83252364674561 23.674406332559226, 51.4434375 23.651098138283587 M51.4434375 23.651098138283587 C52.10780119823332 23.644164771494953, 52.77216489646664 23.63723140470632, 53.893125 23.62553295162424 M51.4434375 23.651098138283587 C52.2405126743607 23.642779781099634, 53.0375878487214 23.63446142391568, 53.893125 23.62553295162424 M53.893125 23.62553295162424 C54.57703338416074 23.637423504372375, 55.26094176832149 23.649314057120513, 56.342812499999994 23.668123653989944 M53.893125 23.62553295162424 C54.59462538535172 23.637729362032484, 55.29612577070343 23.649925772440724, 56.342812499999994 23.668123653989944 M56.342812499999994 23.668123653989944 C56.88962585446638 23.692748240570317, 57.436439208932775 23.717372827150687, 58.792500000000004 23.778440165914695 M56.342812499999994 23.668123653989944 C56.954429917017514 23.695666554901916, 57.566047334035034 23.72320945581389, 58.792500000000004 23.778440165914695 M58.792500000000004 23.778440165914695 C59.737089901251345 23.846663044056637, 60.681679802502686 23.91488592219858, 61.2421875 23.955368515007713 M58.792500000000004 23.778440165914695 C59.696511519159316 23.843732275886243, 60.600523038318634 23.909024385857794, 61.2421875 23.955368515007713 M61.2421875 23.955368515007713 C61.2421875 5.058558942966538, 61.2421875 -13.838250629074636, 61.2421875 -30.375 M61.2421875 23.955368515007713 C61.2421875 6.856971715570168, 61.2421875 -10.241425083867377, 61.2421875 -30.375 M61.2421875 -30.375 C34.231650914894786 -30.375, 7.221114329789565 -30.375, -61.2421875 -30.375 M61.2421875 -30.375 C27.966665863121236 -30.375, -5.308855773757529 -30.375, -61.2421875 -30.375 M-61.2421875 -30.375 C-61.2421875 -7.757712299163089, -61.2421875 14.859575401673823, -61.2421875 30.375 M-61.2421875 -30.375 C-61.2421875 -11.386463507673518, -61.2421875 7.602072984652963, -61.2421875 30.375" stroke="hsl(40.5882352941, 60%, 83.3333333333%)" stroke-width="1.3" fill="none" stroke-dasharray="0 0" style=""/></g><g class="label" style="" transform="translate(-46.2421875,-18.75)"><rect/><foreignObject width="92.484375" height="24"><div xmlns="http://www.w3.org/1999/xhtml" style="display: table-cell; white-space: nowrap; line-height: 1.5; max-width: 200px; text-align: center;"><span class="nodeLabel"><p>Media mount</p></span></div></foreignObject></g></g><g class="node default" id="flowchart-E-8" transform="translate(751.6796875, 159.24282455444336)"><g class="basic label-container" transform="translate(0,-3.375)"><path d="M-73.9140625 30.375 C-73.9140625 30.375, -73.9140625 30.375, -73.9140625 30.375 C-73.05149308377482 30.57264181683504, -72.18892366754963 30.770283633670083, -70.9575 31.0524415752457 C-70.30533322624458 31.200364562091533, -69.65316645248917 31.348287548937364, -68.0009375 31.723042368472246 C-67.17306330004445 31.907007249708748, -66.34518910008889 32.09097213094525, -65.044375 32.38003067564499 C-63.95187979308397 32.615316457455656, -62.859384586167934 32.85060223926633, -62.0878125 33.01677225115112 C-61.20548503774435 33.1988340700798, -60.323157575488715 33.38089588900848, -59.13125 33.62683730018658 C-58.487004776470314 33.75261730667978, -57.84275955294063 33.878397313172975, -56.174687500000005 34.20406540660561 C-55.04759695806193 34.40937427894709, -53.92050641612385 34.61468315128858, -53.218125 34.74262774059375 C-52.17701374060327 34.9167441260216, -51.13590248120654 35.09086051144945, -50.2615625 35.23708591799337 C-49.39169684060288 35.36811789820788, -48.52183118120577 35.49914987842239, -47.305 35.682446916922174 C-46.20117617078597 35.82871180620917, -45.09735234157194 35.97497669549617, -44.3484375 36.0742134971386 C-43.53454002968739 36.16621819896865, -42.72064255937478 36.25822290079871, -41.391875 36.40842961302103 C-40.46828660833873 36.493801785237736, -39.54469821667745 36.57917395745444, -38.4353125 36.68172036158213 C-37.79827119900836 36.72688344816286, -37.161229898016714 36.77204653474359, -35.47875 36.8913260621246 C-34.486232862239184 36.93960104203743, -33.49371572447837 36.98787602195026, -32.522187499999994 37.03513012340311 C-31.849164350867355 37.052555805961866, -31.176141201734712 37.06998148852063, -29.565625000000004 37.111680416890835 C-28.83470844048016 37.11378758845333, -28.103791880960316 37.11589476001583, -26.6090625 37.120203940323975 C-25.80275553362398 37.103952878046364, -24.99644856724796 37.08770181576876, -23.652499999999996 37.060614623452395 C-22.627049482101537 37.016531267206, -21.60159896420308 36.972447910959595, -20.6959375 36.93351419717405 C-19.746767774183922 36.87144848383682, -18.797598048367846 36.8093827704996, -17.739375000000003 36.740186117276835 C-16.731611602644126 36.652380298335444, -15.72384820528825 36.564574479394054, -14.782812499999999 36.482582604145634 C-13.968490593783478 36.39464439726286, -13.154168687566958 36.30670619038008, -11.826250000000002 36.16330492930715 C-11.14033792367314 36.07567341573485, -10.454425847346277 35.988041902162536, -8.869687499999998 35.78557714787841 C-7.717923269313243 35.61714474176206, -6.566159038626488 35.44871233564571, -5.913124999999994 35.35321354216767 C-5.295219195279267 35.25234572615964, -4.67731339055854 35.1514779101516, -2.956562500000004 34.8705801051812 C-1.958369360503419 34.692307000423966, -0.9601762210068336 34.514033895666735, 0 34.342550452974194 C1.0572728341539388 34.139398926048685, 2.1145456683078776 33.936247399123175, 2.956562500000004 33.77445661104139 C3.638533667143845 33.63549995035962, 4.320504834287686 33.49654328967785, 5.913125000000008 33.172035171704664 C7.030505960985811 32.933686087652774, 8.147886921971613 32.695337003600876, 8.869687500000012 32.541369366198666 C9.665412429298817 32.36574523452482, 10.46113735859762 32.19012110285098, 11.826249999999987 31.888827636408326 C12.443400273357584 31.749425738434102, 13.060550546715179 31.610023840459878, 14.782812499999991 31.220999326559056 C15.657988063713812 31.02078589262568, 16.533163627427633 30.820572458692304, 17.739374999999995 30.54462814424253 C18.704008665211802 30.323390564142933, 19.66864233042361 30.102152984043332, 20.6959375 29.866544062686454 C21.70724209904647 29.6363587926547, 22.71854669809294 29.406173522622947, 23.652500000000003 29.193594351916886 C24.60685232919646 28.980222946066814, 25.56120465839292 28.76685154021674, 26.609062500000007 28.532574435258052 C27.203139279861933 28.403490766950604, 27.797216059723862 28.274407098643156, 29.565624999999997 27.890159269378422 C30.538840643070632 27.68695412144053, 31.512056286141267 27.483748973502635, 32.5221875 27.272835940804956 C33.214722526827536 27.135573836869508, 33.907257553655064 26.99831173293406, 35.478750000000005 26.686838159543683 C36.40757533855566 26.514442883707183, 37.336400677111314 26.342047607870683, 38.435312499999995 26.138083311287772 C39.041939283347375 26.034268383629865, 39.64856606669475 25.930453455971957, 41.391875 25.632112703857768 C42.19402838982921 25.507830503624334, 42.996181779658414 25.3835483033909, 44.3484375 25.17403561126342 C45.47161660046773 25.01996675868784, 46.59479570093547 24.86589790611226, 47.30499999999999 24.768477680428262 C47.9282118468334 24.694924120360042, 48.551423693666806 24.621370560291822, 50.2615625 24.419534221564064 C50.972297238961175 24.35010764674264, 51.683031977922354 24.280681071921215, 53.218125 24.13072885386741 C53.89411238243644 24.079113242807622, 54.57009976487287 24.02749763174784, 56.174687500000005 23.904977924132712 C56.93607863970821 23.86366644133742, 57.69746977941641 23.822354958542125, 59.131249999999994 23.74456105758135 C59.883031454159145 23.72079572558528, 60.634812908318295 23.69703039358921, 62.08781250000001 23.651098138283587 C62.816081257533085 23.64480084988718, 63.54435001506615 23.638503561490772, 65.044375 23.62553295162424 C65.95589663259861 23.638663858396516, 66.86741826519722 23.65179476516879, 68.00093749999999 23.668123653989944 C68.61718491138275 23.691117338346828, 69.23343232276551 23.714111022703715, 70.95750000000001 23.778440165914695 C72.01174532908246 23.84152893390576, 73.06599065816492 23.904617701896825, 73.9140625 23.955368515007713 C73.9140625 7.49293689802419, 73.9140625 -8.969494718959332, 73.9140625 -30.375 C16.963294449644657 -30.375, -39.987473600710686 -30.375, -73.9140625 -30.375 C-73.9140625 -6.72149051387084, -73.9140625 16.93201897225832, -73.9140625 30.375" stroke="none" stroke-width="0" fill="#fff4dd" style=""/><path d="M-73.9140625 30.375 C-73.9140625 30.375, -73.9140625 30.375, -73.9140625 30.375 M-73.9140625 30.375 C-73.9140625 30.375, -73.9140625 30.375, -73.9140625 30.375 M-73.9140625 30.375 C-72.96862128017446 30.5916303567947, -72.02318006034893 30.808260713589398, -70.9575 31.0524415752457 M-73.9140625 30.375 C-72.95280161043216 30.595255141317296, -71.99154072086432 30.81551028263459, -70.9575 31.0524415752457 M-70.9575 31.0524415752457 C-70.32815102766442 31.19518908018245, -69.69880205532884 31.337936585119195, -68.0009375 31.723042368472246 M-70.9575 31.0524415752457 C-69.92158057198574 31.287406467800874, -68.88566114397149 31.522371360356043, -68.0009375 31.723042368472246 M-68.0009375 31.723042368472246 C-67.31549598510776 31.875356774318554, -66.63005447021551 32.027671180164866, -65.044375 32.38003067564499 M-68.0009375 31.723042368472246 C-67.08139827464412 31.927376462219797, -66.16185904928822 32.13171055596735, -65.044375 32.38003067564499 M-65.044375 32.38003067564499 C-64.24827507618816 32.55148313766744, -63.452175152376334 32.72293559968989, -62.0878125 33.01677225115112 M-65.044375 32.38003067564499 C-63.9337339236825 32.619224451780696, -62.823092847365004 32.8584182279164, -62.0878125 33.01677225115112 M-62.0878125 33.01677225115112 C-61.46961971342713 33.14433181150337, -60.85142692685425 33.27189137185562, -59.13125 33.62683730018658 M-62.0878125 33.01677225115112 C-61.07859533556996 33.225016832114804, -60.06937817113992 33.43326141307849, -59.13125 33.62683730018658 M-59.13125 33.62683730018658 C-58.246261244876386 33.799619165383795, -57.36127248975278 33.972401030581004, -56.174687500000005 34.20406540660561 M-59.13125 33.62683730018658 C-57.96249792133976 33.8550200459389, -56.79374584267951 34.08320279169123, -56.174687500000005 34.20406540660561 M-56.174687500000005 34.20406540660561 C-55.40179977173105 34.344853304323756, -54.628912043462094 34.48564120204191, -53.218125 34.74262774059375 M-56.174687500000005 34.20406540660561 C-55.0442966038056 34.409975465795426, -53.91390570761119 34.615885524985245, -53.218125 34.74262774059375 M-53.218125 34.74262774059375 C-52.529586566776445 34.85777952878064, -51.84104813355289 34.97293131696753, -50.2615625 35.23708591799337 M-53.218125 34.74262774059375 C-52.14848620581672 34.92151509665261, -51.078847411633426 35.100402452711485, -50.2615625 35.23708591799337 M-50.2615625 35.23708591799337 C-49.4888401812766 35.35348473714948, -48.716117862553205 35.46988355630559, -47.305 35.682446916922174 M-50.2615625 35.23708591799337 C-49.24485210534476 35.3902378155044, -48.22814171068952 35.54338971301543, -47.305 35.682446916922174 M-47.305 35.682446916922174 C-46.5599043918661 35.78117764165162, -45.8148087837322 35.879908366381066, -44.3484375 36.0742134971386 M-47.305 35.682446916922174 C-46.52675708065559 35.785569907587586, -45.74851416131118 35.888692898253, -44.3484375 36.0742134971386 M-44.3484375 36.0742134971386 C-43.67843762148768 36.14995170901069, -43.00843774297536 36.225689920882786, -41.391875 36.40842961302103 M-44.3484375 36.0742134971386 C-43.73413671704796 36.143655364733746, -43.11983593409591 36.213097232328884, -41.391875 36.40842961302103 M-41.391875 36.40842961302103 C-40.57631771337012 36.48381589738253, -39.76076042674024 36.55920218174402, -38.4353125 36.68172036158213 M-41.391875 36.40842961302103 C-40.636936538537526 36.478212577950956, -39.88199807707506 36.547995542880884, -38.4353125 36.68172036158213 M-38.4353125 36.68172036158213 C-37.81346849951013 36.72580603450493, -37.191624499020264 36.769891707427725, -35.47875 36.8913260621246 M-38.4353125 36.68172036158213 C-37.538504706792104 36.745299611385676, -36.6416969135842 36.808878861189214, -35.47875 36.8913260621246 M-35.47875 36.8913260621246 C-34.56844568288876 36.93560229771913, -33.65814136577751 36.97987853331366, -32.522187499999994 37.03513012340311 M-35.47875 36.8913260621246 C-34.767333253814186 36.9259286174107, -34.05591650762838 36.9605311726968, -32.522187499999994 37.03513012340311 M-32.522187499999994 37.03513012340311 C-31.825454990075052 37.053169680529734, -31.128722480150113 37.07120923765636, -29.565625000000004 37.111680416890835 M-32.522187499999994 37.03513012340311 C-31.577762958427112 37.059582836929174, -30.63333841685423 37.08403555045524, -29.565625000000004 37.111680416890835 M-29.565625000000004 37.111680416890835 C-28.969025493537508 37.11340036357674, -28.37242598707501 37.11512031026263, -26.6090625 37.120203940323975 M-29.565625000000004 37.111680416890835 C-28.624142168404454 37.114394633477495, -27.6826593368089 37.117108850064156, -26.6090625 37.120203940323975 M-26.6090625 37.120203940323975 C-25.963304409899543 37.10718872977004, -25.317546319799085 37.0941735192161, -23.652499999999996 37.060614623452395 M-26.6090625 37.120203940323975 C-25.90713530147594 37.10605664519538, -25.20520810295188 37.091909350066786, -23.652499999999996 37.060614623452395 M-23.652499999999996 37.060614623452395 C-22.810565847241016 37.02442049946078, -21.968631694482035 36.98822637546916, -20.6959375 36.93351419717405 M-23.652499999999996 37.060614623452395 C-22.99218765134251 37.032228285943475, -22.331875302685024 37.00384194843455, -20.6959375 36.93351419717405 M-20.6959375 36.93351419717405 C-19.558915737811187 36.85916493715153, -18.42189397562238 36.784815677129025, -17.739375000000003 36.740186117276835 M-20.6959375 36.93351419717405 C-19.64617353116088 36.86487067874988, -18.59640956232176 36.79622716032572, -17.739375000000003 36.740186117276835 M-17.739375000000003 36.740186117276835 C-16.805333263940863 36.658803622362555, -15.871291527881723 36.577421127448275, -14.782812499999999 36.482582604145634 M-17.739375000000003 36.740186117276835 C-16.8416922311052 36.66197155731247, -15.944009462210396 36.583756997348104, -14.782812499999999 36.482582604145634 M-14.782812499999999 36.482582604145634 C-13.670419618779748 36.362455864858745, -12.558026737559496 36.242329125571864, -11.826250000000002 36.16330492930715 M-14.782812499999999 36.482582604145634 C-13.616493040021053 36.35663236115197, -12.45017358004211 36.230682118158306, -11.826250000000002 36.16330492930715 M-11.826250000000002 36.16330492930715 C-11.109505824927037 36.07173433436716, -10.392761649854075 35.98016373942716, -8.869687499999998 35.78557714787841 M-11.826250000000002 36.16330492930715 C-10.981096882948858 36.05532892275518, -10.135943765897714 35.94735291620321, -8.869687499999998 35.78557714787841 M-8.869687499999998 35.78557714787841 C-7.869393507206013 35.639295539593384, -6.869099514412028 35.49301393130836, -5.913124999999994 35.35321354216767 M-8.869687499999998 35.78557714787841 C-8.007467278426743 35.659487256690205, -7.145247056853487 35.533397365502005, -5.913124999999994 35.35321354216767 M-5.913124999999994 35.35321354216767 C-4.966331525208143 35.198657638527834, -4.019538050416292 35.044101734887995, -2.956562500000004 34.8705801051812 M-5.913124999999994 35.35321354216767 C-5.017333381584178 35.20698325357418, -4.121541763168362 35.060752964980686, -2.956562500000004 34.8705801051812 M-2.956562500000004 34.8705801051812 C-2.1418040264840843 34.72506766179354, -1.3270455529681648 34.579555218405886, 0 34.342550452974194 M-2.956562500000004 34.8705801051812 C-1.8688047324893036 34.676311133811865, -0.7810469649786032 34.48204216244253, 0 34.342550452974194 M0 34.342550452974194 C0.9847961897424541 34.15332507689925, 1.9695923794849082 33.964099700824306, 2.956562500000004 33.77445661104139 M0 34.342550452974194 C0.9402680761427514 34.16188100870481, 1.8805361522855029 33.98121156443543, 2.956562500000004 33.77445661104139 M2.956562500000004 33.77445661104139 C3.694110521706199 33.62417575588741, 4.431658543412394 33.47389490073342, 5.913125000000008 33.172035171704664 M2.956562500000004 33.77445661104139 C3.9428008269021166 33.57350326998352, 4.929039153804229 33.37254992892564, 5.913125000000008 33.172035171704664 M5.913125000000008 33.172035171704664 C6.916837734206625 32.95793271318568, 7.920550468413242 32.74383025466669, 8.869687500000012 32.541369366198666 M5.913125000000008 33.172035171704664 C6.959542803148384 32.94882327386101, 8.00596060629676 32.72561137601735, 8.869687500000012 32.541369366198666 M8.869687500000012 32.541369366198666 C9.691338553912727 32.36002308990508, 10.512989607825443 32.17867681361149, 11.826249999999987 31.888827636408326 M8.869687500000012 32.541369366198666 C9.681034207463384 32.36229735809877, 10.492380914926754 32.18322534999887, 11.826249999999987 31.888827636408326 M11.826249999999987 31.888827636408326 C12.747636703230343 31.68070481649976, 13.669023406460699 31.472581996591195, 14.782812499999991 31.220999326559056 M11.826249999999987 31.888827636408326 C12.822715988331659 31.663745908283243, 13.81918197666333 31.438664180158156, 14.782812499999991 31.220999326559056 M14.782812499999991 31.220999326559056 C15.60055152372963 31.033925618390743, 16.418290547459268 30.84685191022243, 17.739374999999995 30.54462814424253 M14.782812499999991 31.220999326559056 C15.495923937678942 31.057861213893975, 16.209035375357892 30.894723101228898, 17.739374999999995 30.54462814424253 M17.739374999999995 30.54462814424253 C18.83546942133008 30.29324019658834, 19.931563842660168 30.041852248934145, 20.6959375 29.866544062686454 M17.739374999999995 30.54462814424253 C18.403804852860983 30.392241950297475, 19.068234705721974 30.239855756352416, 20.6959375 29.866544062686454 M20.6959375 29.866544062686454 C21.762032283082682 29.623887878036737, 22.828127066165365 29.381231693387015, 23.652500000000003 29.193594351916886 M20.6959375 29.866544062686454 C21.49425593884383 29.68483704227949, 22.292574377687657 29.503130021872526, 23.652500000000003 29.193594351916886 M23.652500000000003 29.193594351916886 C24.289323595429224 29.05121512605002, 24.926147190858448 28.908835900183156, 26.609062500000007 28.532574435258052 M23.652500000000003 29.193594351916886 C24.778381402430654 28.941872958980852, 25.904262804861308 28.690151566044822, 26.609062500000007 28.532574435258052 M26.609062500000007 28.532574435258052 C27.447909540696745 28.350305986410163, 28.286756581393487 28.168037537562277, 29.565624999999997 27.890159269378422 M26.609062500000007 28.532574435258052 C27.474715776079826 28.34448140730851, 28.340369052159645 28.156388379358972, 29.565624999999997 27.890159269378422 M29.565624999999997 27.890159269378422 C30.299709570671208 27.73688412954249, 31.033794141342415 27.58360898970656, 32.5221875 27.272835940804956 M29.565624999999997 27.890159269378422 C30.355183192415122 27.725301367188244, 31.144741384830247 27.560443464998063, 32.5221875 27.272835940804956 M32.5221875 27.272835940804956 C33.51438207935527 27.07618059457715, 34.50657665871054 26.879525248349342, 35.478750000000005 26.686838159543683 M32.5221875 27.272835940804956 C33.53921701493502 27.071258250758103, 34.55624652987003 26.869680560711252, 35.478750000000005 26.686838159543683 M35.478750000000005 26.686838159543683 C36.32499799113979 26.52976970996253, 37.17124598227957 26.372701260381373, 38.435312499999995 26.138083311287772 M35.478750000000005 26.686838159543683 C36.49513664644729 26.498191005985955, 37.51152329289457 26.30954385242823, 38.435312499999995 26.138083311287772 M38.435312499999995 26.138083311287772 C39.2172596444676 26.00426497608788, 39.999206788935204 25.870446640887987, 41.391875 25.632112703857768 M38.435312499999995 26.138083311287772 C39.408650297075624 25.971511383103966, 40.38198809415126 25.804939454920156, 41.391875 25.632112703857768 M41.391875 25.632112703857768 C42.40693556909094 25.474843579901705, 43.42199613818189 25.317574455945646, 44.3484375 25.17403561126342 M41.391875 25.632112703857768 C42.501036425519615 25.46026399745639, 43.610197851039224 25.28841529105501, 44.3484375 25.17403561126342 M44.3484375 25.17403561126342 C45.5237541772969 25.012814937010607, 46.69907085459379 24.851594262757793, 47.30499999999999 24.768477680428262 M44.3484375 25.17403561126342 C44.999146892869234 25.084776427685515, 45.64985628573847 24.99551724410761, 47.30499999999999 24.768477680428262 M47.30499999999999 24.768477680428262 C48.48119034336717 24.629659736719237, 49.65738068673435 24.490841793010215, 50.2615625 24.419534221564064 M47.30499999999999 24.768477680428262 C48.05019673778244 24.680527052895062, 48.795393475564886 24.592576425361862, 50.2615625 24.419534221564064 M50.2615625 24.419534221564064 C51.351431208475375 24.313072770777108, 52.44129991695075 24.206611319990152, 53.218125 24.13072885386741 M50.2615625 24.419534221564064 C51.01351285491549 24.34608158907583, 51.76546320983099 24.272628956587592, 53.218125 24.13072885386741 M53.218125 24.13072885386741 C53.942074405518106 24.07545106035667, 54.666023811036204 24.020173266845934, 56.174687500000005 23.904977924132712 M53.218125 24.13072885386741 C54.05965519544018 24.06647307573979, 54.90118539088035 24.00221729761217, 56.174687500000005 23.904977924132712 M56.174687500000005 23.904977924132712 C57.31901742735835 23.842888987657407, 58.46334735471669 23.780800051182098, 59.131249999999994 23.74456105758135 M56.174687500000005 23.904977924132712 C57.133730156183944 23.85294228551722, 58.092772812367876 23.800906646901723, 59.131249999999994 23.74456105758135 M59.131249999999994 23.74456105758135 C60.19691955817517 23.710873087882145, 61.26258911635034 23.677185118182937, 62.08781250000001 23.651098138283587 M59.131249999999994 23.74456105758135 C60.072821647093264 23.71479607379855, 61.01439329418654 23.685031090015748, 62.08781250000001 23.651098138283587 M62.08781250000001 23.651098138283587 C63.06895299114861 23.64261428590595, 64.05009348229721 23.634130433528313, 65.044375 23.62553295162424 M62.08781250000001 23.651098138283587 C62.82641484551693 23.64471149608334, 63.565017191033846 23.63832485388309, 65.044375 23.62553295162424 M65.044375 23.62553295162424 C65.753396192647 23.635746742331186, 66.462417385294 23.64596053303813, 68.00093749999999 23.668123653989944 M65.044375 23.62553295162424 C65.87554855317599 23.6375064057344, 66.70672210635196 23.649479859844554, 68.00093749999999 23.668123653989944 M68.00093749999999 23.668123653989944 C68.84883377964351 23.69976071900861, 69.69673005928703 23.731397784027273, 70.95750000000001 23.778440165914695 M68.00093749999999 23.668123653989944 C68.81914730332002 23.698653044633605, 69.63735710664005 23.729182435277266, 70.95750000000001 23.778440165914695 M70.95750000000001 23.778440165914695 C72.0408434279065 23.843270239420757, 73.12418685581298 23.90810031292682, 73.9140625 23.955368515007713 M70.95750000000001 23.778440165914695 C71.71757543988268 23.823925046672194, 72.47765087976533 23.86940992742969, 73.9140625 23.955368515007713 M73.9140625 23.955368515007713 C73.9140625 4.912800025156802, 73.9140625 -14.12976846469411, 73.9140625 -30.375 M73.9140625 23.955368515007713 C73.9140625 3.8113296612207854, 73.9140625 -16.332709192566142, 73.9140625 -30.375 M73.9140625 -30.375 C26.880475800105522 -30.375, -20.153110899788956 -30.375, -73.9140625 -30.375 M73.9140625 -30.375 C35.94765331042298 -30.375, -2.0187558791540425 -30.375, -73.9140625 -30.375 M-73.9140625 -30.375 C-73.9140625 -7.85910055201936, -73.9140625 14.65679889596128, -73.9140625 30.375 M-73.9140625 -30.375 C-73.9140625 -11.077903365620614, -73.9140625 8.219193268758772, -73.9140625 30.375" stroke="hsl(40.5882352941, 60%, 83.3333333333%)" stroke-width="1.3" fill="none" stroke-dasharray="0 0" style=""/></g><g class="label" style="" transform="translate(-58.9140625,-18.75)"><rect/><foreignObject width="117.828125" height="24"><div xmlns="http://www.w3.org/1999/xhtml" style="display: table-cell; white-space: nowrap; line-height: 1.5; max-width: 200px; text-align: center;"><span class="nodeLabel"><p>Metadata (local)</p></span></div></foreignObject></g></g><g class="node default" id="flowchart-F-11" transform="translate(956.6796875, 100.4952163696289)"><g class="basic label-container" transform="translate(0,-6.75)"><path d="M-81.0859375 -28.75 C-81.0859375 -12.08476916241231, -81.0859375 4.580461675175378, -81.0859375 38.75 C-81.0859375 38.75, -81.0859375 38.75, -81.0859375 38.75 C-79.97958012655293 39.24253022731873, -78.87322275310586 39.73506045463746, -78.0425 40.104883150491396 C-76.92187905884852 40.598725584937625, -75.80125811769703 41.09256801938385, -74.9990625 41.4460847369445 C-74.17108028031754 41.80355857163195, -73.34309806063507 42.161032406319414, -71.955625 42.76006135128997 C-71.06625889937557 43.13220395130285, -70.17689279875115 43.50434655131572, -68.9121875 44.033544502302234 C-67.81473735046328 44.4735180383391, -66.71728720092655 44.91349157437596, -65.86875 45.25367460037315 C-65.23000902727739 45.49596591877672, -64.59126805455479 45.73825723718028, -62.825312499999995 46.408130813211216 C-61.654978371137034 46.822332110255374, -60.48464424227407 47.23653340729953, -59.781875 47.4852554811875 C-59.05649484790644 47.72095616367304, -58.33111469581289 47.95665684615857, -56.7384375 48.47417183598674 C-55.75806976083051 48.76109578670635, -54.777702021661014 49.04801973742595, -53.695 49.364893833844356 C-53.05837445390606 49.52879311751398, -52.421748907812116 49.692692401183606, -50.6515625 50.1484269942772 C-49.60709183519043 50.3778247911735, -48.56262117038087 50.6072225880698, -47.608125 50.81685922604206 C-46.438500042714836 51.026916229093516, -45.26887508542967 51.23697323214497, -44.5646875 51.36344072316426 C-43.492118552945456 51.5111793020097, -42.41954960589092 51.65891788085515, -41.52125 51.782652124249196 C-40.64054368292582 51.865879820029974, -39.75983736585164 51.94910751581076, -38.4778125 52.07026024680622 C-37.715320852310086 52.10861750527636, -36.952829204620166 52.14697476374649, -35.434375 52.22336083378167 C-34.22113228836524 52.23015650655807, -33.00788957673047 52.23695217933446, -32.3909375 52.24040788064795 C-31.729642433616238 52.21451208271791, -31.068347367232477 52.18861628478787, -29.347499999999997 52.12122924690479 C-28.308509862886165 52.034448368817976, -27.26951972577233 51.94766749073116, -26.3040625 51.8670283943481 C-25.674434724479827 51.78703678690338, -25.044806948959653 51.70704517945866, -23.260624999999997 51.48037223455367 C-22.12242079752885 51.28769181892675, -20.9842165950577 51.09501140329984, -20.217187499999994 50.96516520829126 C-19.595532340499833 50.834733343745626, -18.973877180999672 50.704301479199984, -17.173750000000005 50.326609858614304 C-16.530910951785664 50.16704149718236, -15.888071903571323 50.00747313575042, -14.130312500000002 49.571154295756834 C-12.982476511788889 49.24502142355065, -11.834640523577773 48.91888855134446, -11.086874999999992 48.706427084335346 C-10.102168940998892 48.39411439864549, -9.117462881997792 48.08180171295564, -8.043437499999996 47.741160210362395 C-7.058208491494842 47.39929011728164, -6.072979482989687 47.05742002420088, -5 46.68510090594838 C-3.8089694921341954 46.24046085858571, -2.617938984268391 45.79582081122304, -1.956562500000004 45.548913222082774 C-1.0173543964369198 45.1770974068507, -0.0781462928738359 44.80528159161863, 1.0868750000000063 44.344070343409335 C2.0603779349819162 43.940608788734515, 3.033880869963826 43.53714723405969, 4.130312500000002 43.082738732397324 C5.051925878682905 42.68753351571477, 5.9735392573658075 42.29232829903221, 7.173749999999998 41.777655272816645 C8.171615308855971 41.33972763167369, 9.169480617711944 40.90179999053073, 10.217187499999994 40.441998653118105 C10.906897210239055 40.135437554249094, 11.596606920478115 39.828876455380076, 13.260625000000005 39.089256288485046 C13.959452181438978 38.777856046165326, 14.658279362877952 38.466455803845605, 16.3040625 37.73308812537291 C17.12494304854219 37.37007010530985, 17.945823597084377 37.00705208524679, 19.34750000000001 36.387188703833765 C20.41408031220944 35.923876525360164, 21.480660624418867 35.460564346886564, 22.390937500000007 35.065148870516104 C23.22869300711603 34.71147849412722, 24.066448514232054 34.357808117738344, 25.43437499999999 33.780318538756845 C26.52657036415998 33.33724213080974, 27.61876572831997 32.894165722862645, 28.4778125 32.54567188160991 C29.217425290301676 32.260854825823984, 29.957038080603354 31.976037770038058, 31.521249999999995 31.37367631908737 C32.29025431422187 31.09636170641077, 33.059258628443736 30.819047093734177, 34.564687500000005 30.27616662257554 C35.57650606615264 29.93973753242652, 36.588324632305266 29.603308442277502, 37.608125 29.264225407715532 C38.72900914148137 28.926810002493713, 39.84989328296273 28.589394597271895, 40.65156250000001 28.348071222526844 C41.48272230318402 28.12655627439818, 42.313882106368034 27.905041326269515, 43.69499999999999 27.536955360856528 C44.37804562404199 27.380327007151042, 45.06109124808398 27.223698653445556, 46.73843749999999 26.839068443128127 C47.94564758158248 26.609953337923212, 49.15285766316497 26.380838232718297, 49.781874999999985 26.261457707734817 C50.73297683837429 26.120359279207616, 51.6840786767486 25.979260850680415, 52.825312499999995 25.809955848265425 C53.57290146843475 25.731146357494104, 54.3204904368695 25.652336866722788, 55.868750000000006 25.4891221151627 C56.656968494682964 25.440710277194903, 57.44518698936592 25.39229843922711, 58.912187500000016 25.302196276567173 C60.000962265703066 25.283904637514173, 61.08973703140612 25.26561299846117, 61.955625 25.25106590324848 C63.14066102969552 25.284233344231513, 64.32569705939105 25.317400785214545, 64.99906250000001 25.33624730797989 C65.66422819703537 25.384468281500084, 66.32939389407072 25.432689255020282, 68.04249999999999 25.55688033182939 C68.97621100554392 25.665441750778108, 69.90992201108784 25.77400316972683, 71.0859375 25.910737030015433 C71.0859375 24.38708723577935, 71.0859375 22.863437441543265, 71.0859375 20.910737030015433 C72.26529175906963 20.910737030015433, 73.44464601813924 20.910737030015433, 76.0859375 20.910737030015433 C76.0859375 19.791705642650175, 76.0859375 18.67267425528492, 76.0859375 15.910737030015433 C77.10501004071216 15.910737030015433, 78.1240825814243 15.910737030015433, 81.0859375 15.910737030015433 C81.0859375 -3.8807740425047577, 81.0859375 -23.67228511502495, 81.0859375 -38.75 C49.91087561466233 -38.75, 18.73581372932467 -38.75, -71.0859375 -38.75 C-71.0859375 -37.136287320764595, -71.0859375 -35.52257464152919, -71.0859375 -33.75 C-72.6118288473184 -33.75, -74.13772019463681 -33.75, -76.0859375 -33.75 C-76.0859375 -31.76168982460456, -76.0859375 -29.77337964920912, -76.0859375 -28.75 C-77.81564844437102 -28.75, -79.54535938874206 -28.75, -81.0859375 -28.75" stroke="none" stroke-width="0" fill="#fff4dd" style=""/><path d="M-81.0859375 -28.75 C-81.0859375 -6.632993113619122, -81.0859375 15.484013772761756, -81.0859375 38.75 M-81.0859375 -28.75 C-81.0859375 -8.293824456636358, -81.0859375 12.162351086727284, -81.0859375 38.75 M-81.0859375 38.75 C-81.0859375 38.75, -81.0859375 38.75, -81.0859375 38.75 M-81.0859375 38.75 C-81.0859375 38.75, -81.0859375 38.75, -81.0859375 38.75 M-81.0859375 38.75 C-80.23700023301788 39.1279314669213, -79.38806296603576 39.5058629338426, -78.0425 40.104883150491396 M-81.0859375 38.75 C-80.30384841152514 39.09817187083939, -79.52175932305029 39.44634374167878, -78.0425 40.104883150491396 M-78.0425 40.104883150491396 C-77.37982477020937 40.39691512732627, -76.71714954041872 40.68894710416114, -74.9990625 41.4460847369445 M-78.0425 40.104883150491396 C-77.31476152598586 40.425587615712296, -76.58702305197173 40.74629208093319, -74.9990625 41.4460847369445 M-74.9990625 41.4460847369445 C-74.11670229501786 41.827035774965026, -73.23434209003572 42.20798681298556, -71.955625 42.76006135128997 M-74.9990625 41.4460847369445 C-74.3121530572159 41.74265167613461, -73.6252436144318 42.03921861532471, -71.955625 42.76006135128997 M-71.955625 42.76006135128997 C-70.89378590314071 43.20437282439772, -69.83194680628144 43.648684297505476, -68.9121875 44.033544502302234 M-71.955625 42.76006135128997 C-70.79331366909393 43.24641400224453, -69.63100233818788 43.732766653199086, -68.9121875 44.033544502302234 M-68.9121875 44.033544502302234 C-67.97381405862836 44.40974334950968, -67.03544061725673 44.78594219671714, -65.86875 45.25367460037315 M-68.9121875 44.033544502302234 C-67.92039720868708 44.43115844555076, -66.92860691737417 44.82877238879927, -65.86875 45.25367460037315 M-65.86875 45.25367460037315 C-64.83671464247416 45.64515286479102, -63.80467928494832 46.03663112920889, -62.825312499999995 46.408130813211216 M-65.86875 45.25367460037315 C-65.12908399976365 45.53424944687416, -64.38941799952731 45.81482429337518, -62.825312499999995 46.408130813211216 M-62.825312499999995 46.408130813211216 C-61.72862472396293 46.796267404364336, -60.631936947925865 47.18440399551746, -59.781875 47.4852554811875 M-62.825312499999995 46.408130813211216 C-61.870280212804154 46.746133100181936, -60.91524792560831 47.08413538715266, -59.781875 47.4852554811875 M-59.781875 47.4852554811875 C-58.717122335866875 47.83122983531086, -57.65236967173376 48.177204189434214, -56.7384375 48.47417183598674 M-59.781875 47.4852554811875 C-58.799276863813674 47.80453503500449, -57.81667872762735 48.12381458882149, -56.7384375 48.47417183598674 M-56.7384375 48.47417183598674 C-55.870816360894 48.728098270949836, -55.003195221788 48.982024705912934, -53.695 49.364893833844356 M-56.7384375 48.47417183598674 C-55.55313717818373 48.82107334807938, -54.36783685636747 49.16797486017203, -53.695 49.364893833844356 M-53.695 49.364893833844356 C-52.629936927877914 49.639094383374335, -51.56487385575582 49.91329493290431, -50.6515625 50.1484269942772 M-53.695 49.364893833844356 C-52.60903800512451 49.644474812246166, -51.52307601024902 49.92405579064797, -50.6515625 50.1484269942772 M-50.6515625 50.1484269942772 C-49.55870876087043 50.38845119843416, -48.465855021740865 50.62847540259112, -47.608125 50.81685922604206 M-50.6515625 50.1484269942772 C-49.57449908820167 50.38498315818746, -48.49743567640334 50.621539322097725, -47.608125 50.81685922604206 M-47.608125 50.81685922604206 C-46.86441019594945 50.95042554735797, -46.12069539189891 51.083991868673884, -44.5646875 51.36344072316426 M-47.608125 50.81685922604206 C-46.77318044204287 50.966809815302476, -45.938235884085735 51.11676040456289, -44.5646875 51.36344072316426 M-44.5646875 51.36344072316426 C-43.62261109364269 51.493204902727044, -42.68053468728538 51.62296908228983, -41.52125 51.782652124249196 M-44.5646875 51.36344072316426 C-43.504474251105215 51.509477394368446, -42.44426100221044 51.65551406557263, -41.52125 51.782652124249196 M-41.52125 51.782652124249196 C-40.68068409580647 51.86208650776801, -39.84011819161294 51.94152089128683, -38.4778125 52.07026024680622 M-41.52125 51.782652124249196 C-40.586070943067085 51.87102755263211, -39.65089188613417 51.959402981015025, -38.4778125 52.07026024680622 M-38.4778125 52.07026024680622 C-37.585153279687525 52.115165604842616, -36.69249405937506 52.160070962879004, -35.434375 52.22336083378167 M-38.4778125 52.07026024680622 C-37.597387648128226 52.11455015307482, -36.71696279625645 52.15884005934342, -35.434375 52.22336083378167 M-35.434375 52.22336083378167 C-34.770767423274656 52.22707786410059, -34.1071598465493 52.230794894419525, -32.3909375 52.24040788064795 M-35.434375 52.22336083378167 C-34.219334106871344 52.23016657861777, -33.00429321374268 52.23697232345386, -32.3909375 52.24040788064795 M-32.3909375 52.24040788064795 C-31.181733457062368 52.19305639544281, -29.972529414124736 52.145704910237676, -29.347499999999997 52.12122924690479 M-32.3909375 52.24040788064795 C-31.299505946118472 52.197668274063034, -30.208074392236945 52.154928667478124, -29.347499999999997 52.12122924690479 M-29.347499999999997 52.12122924690479 C-28.533338932833992 52.053227049589395, -27.719177865667984 51.985224852274, -26.3040625 51.8670283943481 M-29.347499999999997 52.12122924690479 C-28.524622079985956 52.0524989809415, -27.70174415997192 51.98376871497821, -26.3040625 51.8670283943481 M-26.3040625 51.8670283943481 C-25.624646217274087 51.78071136277423, -24.94522993454817 51.69439433120035, -23.260624999999997 51.48037223455367 M-26.3040625 51.8670283943481 C-25.265466147425066 51.73507901892536, -24.226869794850135 51.60312964350263, -23.260624999999997 51.48037223455367 M-23.260624999999997 51.48037223455367 C-22.337800895102095 51.32415234738736, -21.41497679020419 51.167932460221046, -20.217187499999994 50.96516520829126 M-23.260624999999997 51.48037223455367 C-22.589289774671183 51.366725535691984, -21.91795454934237 51.2530788368303, -20.217187499999994 50.96516520829126 M-20.217187499999994 50.96516520829126 C-19.060102198364948 50.72239268235911, -17.903016896729902 50.479620156426954, -17.173750000000005 50.326609858614304 M-20.217187499999994 50.96516520829126 C-19.25666176301024 50.76363360205416, -18.296136026020484 50.562101995817066, -17.173750000000005 50.326609858614304 M-17.173750000000005 50.326609858614304 C-16.266532311629625 50.101416257825036, -15.359314623259246 49.87622265703576, -14.130312500000002 49.571154295756834 M-17.173750000000005 50.326609858614304 C-16.13136641243977 50.067864778469335, -15.088982824879533 49.809119698324366, -14.130312500000002 49.571154295756834 M-14.130312500000002 49.571154295756834 C-13.147228404160069 49.29183212509012, -12.164144308320136 49.01250995442341, -11.086874999999992 48.706427084335346 M-14.130312500000002 49.571154295756834 C-13.0904474888049 49.275699051025995, -12.050582477609797 48.98024380629516, -11.086874999999992 48.706427084335346 M-11.086874999999992 48.706427084335346 C-10.408294352831522 48.49120616390217, -9.729713705663052 48.27598524346899, -8.043437499999996 47.741160210362395 M-11.086874999999992 48.706427084335346 C-10.422391595860285 48.495677292916646, -9.757908191720578 48.284927501497954, -8.043437499999996 47.741160210362395 M-8.043437499999996 47.741160210362395 C-6.8423926189369055 47.3244029673878, -5.641347737873814 46.9076457244132, -5 46.68510090594838 M-8.043437499999996 47.741160210362395 C-6.939191657459967 47.35799180411949, -5.834945814919937 46.974823397876584, -5 46.68510090594838 M-5 46.68510090594838 C-4.192767859530279 46.38374192748335, -3.3855357190605573 46.08238294901832, -1.956562500000004 45.548913222082774 M-5 46.68510090594838 C-3.8992905441115777 46.2741798578589, -2.7985810882231554 45.86325880976941, -1.956562500000004 45.548913222082774 M-1.956562500000004 45.548913222082774 C-0.7682675600594862 45.078488350157194, 0.42002737988103167 44.608063478231614, 1.0868750000000063 44.344070343409335 M-1.956562500000004 45.548913222082774 C-1.2608416290595865 45.27348967982273, -0.5651207581191691 44.998066137562695, 1.0868750000000063 44.344070343409335 M1.0868750000000063 44.344070343409335 C1.7013433775832372 44.08940817649676, 2.315811755166468 43.83474600958418, 4.130312500000002 43.082738732397324 M1.0868750000000063 44.344070343409335 C2.2474368656953985 43.86308350936504, 3.4079987313907907 43.38209667532075, 4.130312500000002 43.082738732397324 M4.130312500000002 43.082738732397324 C4.7756783868745085 42.80599365570772, 5.421044273749016 42.5292485790181, 7.173749999999998 41.777655272816645 M4.130312500000002 43.082738732397324 C5.009044861190903 42.70592170560163, 5.8877772223818035 42.32910467880593, 7.173749999999998 41.777655272816645 M7.173749999999998 41.777655272816645 C7.921043072883511 41.44969488603304, 8.668336145767023 41.121734499249435, 10.217187499999994 40.441998653118105 M7.173749999999998 41.777655272816645 C8.208723990199987 41.323441949485236, 9.243697980399974 40.869228626153834, 10.217187499999994 40.441998653118105 M10.217187499999994 40.441998653118105 C11.241787501480953 39.98658603866278, 12.266387502961912 39.53117342420745, 13.260625000000005 39.089256288485046 M10.217187499999994 40.441998653118105 C10.95798512012825 40.11273007955061, 11.698782740256506 39.783461505983105, 13.260625000000005 39.089256288485046 M13.260625000000005 39.089256288485046 C14.460026847558746 38.55479793327419, 15.659428695117485 38.02033957806333, 16.3040625 37.73308812537291 M13.260625000000005 39.089256288485046 C13.872384525568872 38.81665374873942, 14.48414405113774 38.54405120899379, 16.3040625 37.73308812537291 M16.3040625 37.73308812537291 C17.22457035667322 37.326011919004706, 18.145078213346434 36.91893571263651, 19.34750000000001 36.387188703833765 M16.3040625 37.73308812537291 C17.2014611291618 37.33623151311165, 18.098859758323602 36.93937490085038, 19.34750000000001 36.387188703833765 M19.34750000000001 36.387188703833765 C19.971311711086038 36.1162109260592, 20.595123422172065 35.845233148284635, 22.390937500000007 35.065148870516104 M19.34750000000001 36.387188703833765 C19.96466317319655 36.11909898665621, 20.581826346393086 35.851009269478666, 22.390937500000007 35.065148870516104 M22.390937500000007 35.065148870516104 C23.474263678296488 34.607807350256806, 24.557589856592966 34.1504658299975, 25.43437499999999 33.780318538756845 M22.390937500000007 35.065148870516104 C23.440112201153596 34.6222248809955, 24.48928690230719 34.17930089147491, 25.43437499999999 33.780318538756845 M25.43437499999999 33.780318538756845 C26.38668190938174 33.39399138656591, 27.338988818763486 33.00766423437498, 28.4778125 32.54567188160991 M25.43437499999999 33.780318538756845 C26.14475786789683 33.49213393396595, 26.855140735793665 33.20394932917506, 28.4778125 32.54567188160991 M28.4778125 32.54567188160991 C29.55582742347339 32.1305397467644, 30.633842346946775 31.715407611918888, 31.521249999999995 31.37367631908737 M28.4778125 32.54567188160991 C29.179068003287984 32.2756258109914, 29.880323506575973 32.00557974037289, 31.521249999999995 31.37367631908737 M31.521249999999995 31.37367631908737 C32.44271658932482 31.04138149890602, 33.36418317864964 30.70908667872467, 34.564687500000005 30.27616662257554 M31.521249999999995 31.37367631908737 C32.719324694697036 30.941632423138973, 33.91739938939408 30.509588527190576, 34.564687500000005 30.27616662257554 M34.564687500000005 30.27616662257554 C35.27030935347888 30.04154776293371, 35.97593120695775 29.80692890329188, 37.608125 29.264225407715532 M34.564687500000005 30.27616662257554 C35.580859945646274 29.938289870003967, 36.597032391292544 29.600413117432392, 37.608125 29.264225407715532 M37.608125 29.264225407715532 C38.71593914043668 28.930744414209908, 39.82375328087336 28.597263420704284, 40.65156250000001 28.348071222526844 M37.608125 29.264225407715532 C38.45066081601236 29.010600119201776, 39.293196632024724 28.75697483068802, 40.65156250000001 28.348071222526844 M40.65156250000001 28.348071222526844 C41.48943303973663 28.12476777541921, 42.32730357947325 27.901464328311572, 43.69499999999999 27.536955360856528 M40.65156250000001 28.348071222526844 C41.482710998836346 28.126559287154546, 42.313859497672674 27.90504735178225, 43.69499999999999 27.536955360856528 M43.69499999999999 27.536955360856528 C44.515913470888094 27.348712700404384, 45.33682694177619 27.16047003995224, 46.73843749999999 26.839068443128127 M43.69499999999999 27.536955360856528 C44.848274569070554 27.272499384907224, 46.001549138141115 27.008043408957924, 46.73843749999999 26.839068443128127 M46.73843749999999 26.839068443128127 C47.35359566871623 26.72231823478135, 47.96875383743247 26.605568026434575, 49.781874999999985 26.261457707734817 M46.73843749999999 26.839068443128127 C47.63575510149626 26.66876749898795, 48.533072702992534 26.49846655484777, 49.781874999999985 26.261457707734817 M49.781874999999985 26.261457707734817 C50.92822131869829 26.091394253338866, 52.0745676373966 25.921330798942915, 52.825312499999995 25.809955848265425 M49.781874999999985 26.261457707734817 C50.94687547509301 26.088626860777314, 52.11187595018604 25.91579601381981, 52.825312499999995 25.809955848265425 M52.825312499999995 25.809955848265425 C53.709525872979825 25.71674365734234, 54.59373924595965 25.62353146641926, 55.868750000000006 25.4891221151627 M52.825312499999995 25.809955848265425 C53.88992905802144 25.69772587652032, 54.95454561604288 25.585495904775215, 55.868750000000006 25.4891221151627 M55.868750000000006 25.4891221151627 C56.518036163827134 25.4492434054268, 57.16732232765427 25.409364695690897, 58.912187500000016 25.302196276567173 M55.868750000000006 25.4891221151627 C56.866060854604605 25.42786796821952, 57.8633717092092 25.36661382127634, 58.912187500000016 25.302196276567173 M58.912187500000016 25.302196276567173 C59.646537914237186 25.28985903920755, 60.38088832847436 25.277521801847925, 61.955625 25.25106590324848 M58.912187500000016 25.302196276567173 C59.95729490529623 25.28463825811241, 61.00240231059244 25.26708023965764, 61.955625 25.25106590324848 M61.955625 25.25106590324848 C62.62880833749908 25.269907329211705, 63.30199167499816 25.28874875517493, 64.99906250000001 25.33624730797989 M61.955625 25.25106590324848 C62.85994915458054 25.27637662568642, 63.764273309161084 25.301687348124357, 64.99906250000001 25.33624730797989 M64.99906250000001 25.33624730797989 C66.02757097129218 25.410808699194927, 67.05607944258435 25.48537009040997, 68.04249999999999 25.55688033182939 M64.99906250000001 25.33624730797989 C66.05989922429174 25.413152325510588, 67.12073594858347 25.490057343041286, 68.04249999999999 25.55688033182939 M68.04249999999999 25.55688033182939 C68.68418265922938 25.631487977650323, 69.32586531845877 25.70609562347126, 71.0859375 25.910737030015433 M68.04249999999999 25.55688033182939 C68.81147785775727 25.64628843228296, 69.58045571551453 25.735696532736533, 71.0859375 25.910737030015433 M71.0859375 25.910737030015433 C71.0859375 24.169271852144625, 71.0859375 22.427806674273818, 71.0859375 20.910737030015433 M71.0859375 25.910737030015433 C71.0859375 24.136137024133536, 71.0859375 22.36153701825164, 71.0859375 20.910737030015433 M71.0859375 20.910737030015433 C72.56922780524468 20.910737030015433, 74.05251811048936 20.910737030015433, 76.0859375 20.910737030015433 M71.0859375 20.910737030015433 C72.96351054329742 20.910737030015433, 74.84108358659482 20.910737030015433, 76.0859375 20.910737030015433 M76.0859375 20.910737030015433 C76.0859375 19.29799738080632, 76.0859375 17.685257731597208, 76.0859375 15.910737030015433 M76.0859375 20.910737030015433 C76.0859375 19.82733061974716, 76.0859375 18.743924209478884, 76.0859375 15.910737030015433 M76.0859375 15.910737030015433 C77.37778071432173 15.910737030015433, 78.66962392864347 15.910737030015433, 81.0859375 15.910737030015433 M76.0859375 15.910737030015433 C77.4112761104262 15.910737030015433, 78.7366147208524 15.910737030015433, 81.0859375 15.910737030015433 M81.0859375 15.910737030015433 C81.0859375 0.9868153879265655, 81.0859375 -13.937106254162302, 81.0859375 -38.75 M81.0859375 15.910737030015433 C81.0859375 -1.7288038446521448, 81.0859375 -19.368344719319722, 81.0859375 -38.75 M81.0859375 -38.75 C25.698473997281603 -38.75, -29.688989505436794 -38.75, -71.0859375 -38.75 M81.0859375 -38.75 C25.28307540445421 -38.75, -30.519786691091582 -38.75, -71.0859375 -38.75 M-71.0859375 -38.75 C-71.0859375 -36.779619777000256, -71.0859375 -34.80923955400051, -71.0859375 -33.75 M-71.0859375 -38.75 C-71.0859375 -37.13419537408498, -71.0859375 -35.51839074816996, -71.0859375 -33.75 M-71.0859375 -33.75 C-72.10743436352698 -33.75, -73.12893122705394 -33.75, -76.0859375 -33.75 M-71.0859375 -33.75 C-73.03334101984574 -33.75, -74.98074453969147 -33.75, -76.0859375 -33.75 M-76.0859375 -33.75 C-76.0859375 -32.54554248931928, -76.0859375 -31.34108497863856, -76.0859375 -28.75 M-76.0859375 -33.75 C-76.0859375 -32.42465257793117, -76.0859375 -31.099305155862346, -76.0859375 -28.75 M-76.0859375 -28.75 C-77.56290246043721 -28.75, -79.03986742087442 -28.75, -81.0859375 -28.75 M-76.0859375 -28.75 C-77.38757716899566 -28.75, -78.68921683799132 -28.75, -81.0859375 -28.75" stroke="hsl(40.5882352941, 60%, 83.3333333333%)" stroke-width="1.3" fill="none" stroke-dasharray="0 0" style=""/><g><path d="M-76.0859375 -28.75 C-27.197764455110374 -28.75, 21.690408589779253 -28.75, 71.0859375 -28.75 C71.0859375 -17.96850146872226, 71.0859375 -7.187002937444522, 71.0859375 20.910737030015433 C72.29205010006825 20.910737030015433, 73.4981627001365 20.910737030015433, 76.0859375 20.910737030015433 C76.0859375 1.1123154000199875, 76.0859375 -18.686106229975458, 76.0859375 -33.75 C25.27471707192626 -33.75, -25.536503356147477 -33.75, -76.0859375 -33.75 C-76.0859375 -31.95787686927958, -76.0859375 -30.165753738559157, -76.0859375 -28.75" stroke="none" stroke-width="0" fill="#fff4dd" style=""/><path d="M-76.0859375 -28.75 C-46.550407506353196 -28.75, -17.01487751270639 -28.75, 71.0859375 -28.75 M-76.0859375 -28.75 C-37.59376230740473 -28.75, 0.8984128851905382 -28.75, 71.0859375 -28.75 M71.0859375 -28.75 C71.0859375 -13.847401809388495, 71.0859375 1.0551963812230092, 71.0859375 20.910737030015433 M71.0859375 -28.75 C71.0859375 -15.836007048024596, 71.0859375 -2.9220140960491925, 71.0859375 20.910737030015433 M71.0859375 20.910737030015433 C72.41648256407183 20.910737030015433, 73.74702762814366 20.910737030015433, 76.0859375 20.910737030015433 M71.0859375 20.910737030015433 C72.47015216374967 20.910737030015433, 73.85436682749935 20.910737030015433, 76.0859375 20.910737030015433 M76.0859375 20.910737030015433 C76.0859375 -0.35309205994095194, 76.0859375 -21.616921149897337, 76.0859375 -33.75 M76.0859375 20.910737030015433 C76.0859375 4.292561577414197, 76.0859375 -12.325613875187038, 76.0859375 -33.75 M76.0859375 -33.75 C22.284893371548897 -33.75, -31.516150756902206 -33.75, -76.0859375 -33.75 M76.0859375 -33.75 C15.597545010991581 -33.75, -44.89084747801684 -33.75, -76.0859375 -33.75 M-76.0859375 -33.75 C-76.0859375 -32.53904131662664, -76.0859375 -31.32808263325327, -76.0859375 -28.75 M-76.0859375 -33.75 C-76.0859375 -32.16560717382891, -76.0859375 -30.581214347657816, -76.0859375 -28.75" stroke="hsl(40.5882352941, 60%, 83.3333333333%)" stroke-width="1.3" fill="none" stroke-dasharray="0 0" style=""/></g></g><g class="label" style="" transform="translate(-66.0859375, -13.75)"><rect/><foreignObject width="122.171875" height="24"><div xmlns="http://www.w3.org/1999/xhtml" style="display: table-cell; white-space: nowrap; line-height: 1.5; max-width: 200px; text-align: center;"><span class="nodeLabel"><p>Merged directory</p></span></div></foreignObject></g></g></g></g><marker id="my-svg_flowchart-v2-pointEnd__757575" class="marker flowchart-v2" viewBox="0 0 10 10" refX="5" refY="5" markerUnits="userSpaceOnUse" markerWidth="8" markerHeight="8" orient="auto"><path d="M 0 0 L 10 5 L 0 10 z" class="arrowMarkerPath" style="stroke-width: 1; stroke-dasharray: 1, 0;" stroke="#757575" fill="#757575"/></marker></g></svg>